<svg id="Layer_1" data-name="Layer 1" xmlns="http://www.w3.org/2000/svg" viewBox="0 0 103.32 36.78"><path d="M7.6,36.18a23.9,23.9,0,0,1,0-35L9.27,2.89a20.86,20.86,0,0,0-7,15.81,20.83,20.83,0,0,0,7,15.8Z"/><path d="M38.21,11.4a6,6,0,0,1,2,2.74,6.56,6.56,0,0,1,.3,1.67,4.45,4.45,0,0,1-1.06,3,5.93,5.93,0,0,1-2.74,2,4.32,4.32,0,0,1-1.67.31,5.28,5.28,0,0,1-3-1.07,1.67,1.67,0,0,1-.3.92,4.82,4.82,0,0,1,4.25,2.28,4.82,4.82,0,0,1,1.07,3,5.8,5.8,0,0,1-2.44,4.56,4.71,4.71,0,0,1-2.88.91,6.09,6.09,0,0,1-4.56-2.43,4.3,4.3,0,0,1-.92-2.89,5.08,5.08,0,0,1,.31-1.67c-.1.1-.25.1-.46,0H25.6a5.32,5.32,0,0,1,.3,1.67,3.67,3.67,0,0,1-1.06,3,5.23,5.23,0,0,1-4.41,2.28,5,5,0,0,1-3.19-1.07,4.73,4.73,0,0,1-2.13-3.8,5.33,5.33,0,0,1,1.06-3.64A5.08,5.08,0,0,1,20.43,21c-.1-.31-.21-.61-.31-.92a5,5,0,0,1-3.19,1.07,3.94,3.94,0,0,1-1.52-.31,7.21,7.21,0,0,1-2.73-2,4.84,4.84,0,0,1-1.07-3,6.23,6.23,0,0,1,.31-1.67,7.17,7.17,0,0,1,2-2.74,4.83,4.83,0,0,1,3-1.06,4.47,4.47,0,0,1,1.67.3,5.45,5.45,0,0,1,3.5,3.5,1.49,1.49,0,0,0,.76-.61,5.1,5.1,0,0,1-2.13-4.87,5.15,5.15,0,0,1,1.83-3.49A5.08,5.08,0,0,1,26.05,3.8a5.2,5.2,0,0,1,4.11,2,5,5,0,0,1,1.21,2.88,4.74,4.74,0,0,1-2.13,4.87,1.56,1.56,0,0,1,.76.61,6,6,0,0,1,3.5-3.5,5.1,5.1,0,0,1,1.52-.3A5.45,5.45,0,0,1,38.21,11.4ZM29.09,22.19a4.58,4.58,0,0,0,1.67-3.49,4.45,4.45,0,0,0-1.21-3,4.65,4.65,0,0,0-8.21,3,4.45,4.45,0,0,0,1.22,3,4.62,4.62,0,0,0,3.49,1.67A4.46,4.46,0,0,0,29.09,22.19Z"/><path d="M46.74,8.36l5.77-6.69H58L50.23,8.36Z"/><path d="M75.14,30.7l1.67,1.68a11.35,11.35,0,0,1-9.12,4.4,11.63,11.63,0,0,1-9.12-4.4l1.67-1.68a9.49,9.49,0,0,0,7.45,3.8A9.21,9.21,0,0,0,75.14,30.7Z"/><path d="M87.51,7H84.93L78.54,0H83.1Z"/><path d="M95.72,36.18,94.05,34.5a20.83,20.83,0,0,0,7-15.8,20.86,20.86,0,0,0-7-15.81l1.67-1.67a23.9,23.9,0,0,1,0,35Z"/></svg>